<svg width="87" height="48" viewBox="0 0 87 48" fill="none" xmlns="http://www.w3.org/2000/svg">
<path d="M5.55908 33.847H6.07255V36.0031C5.77645 36.2503 5.43865 36.4427 5.07499 36.5713C4.70413 36.7077 4.31215 36.7777 3.91701 36.7781C3.38227 36.7806 2.85612 36.6436 2.39052 36.3806C1.92492 36.1176 1.53599 35.7376 1.26214 35.2783C0.988281 34.8236 0.845385 34.3021 0.849219 33.7713C0.844836 33.2429 0.987826 32.7237 1.26214 32.2721C1.53538 31.819 1.92305 31.4457 2.38622 31.1898C2.86046 30.9233 3.39618 30.7854 3.94018 30.7899C4.3357 30.7893 4.72805 30.8605 5.09815 31C5.46126 31.1346 5.79667 31.3344 6.0878 31.5898L5.74888 32.0027C5.50692 31.7779 5.22382 31.602 4.91513 31.4847C4.60342 31.3643 4.27207 31.3028 3.93791 31.3034C3.49746 31.2998 3.06415 31.4147 2.68335 31.6361C2.30788 31.8516 1.99457 32.1606 1.77391 32.5331C1.54929 32.9068 1.43203 33.3352 1.43499 33.7713C1.43149 34.2113 1.54871 34.6438 1.77391 35.0219C1.99743 35.3996 2.31596 35.7121 2.6978 35.9285C3.07964 36.1448 3.51148 36.2574 3.95034 36.255C4.23544 36.2543 4.51853 36.2074 4.7886 36.116C5.06361 36.0249 5.32334 35.893 5.55908 35.7246V33.847Z" fill="white"/>
<path d="M14.7057 36.7273L14.0069 35.1609H10.7392L10.0484 36.7273H9.427L12.0819 30.8402H12.6885L15.3434 36.7273H14.7057ZM10.9663 34.6372H13.7793L12.3671 31.4542L10.9663 34.6372Z" fill="white"/>
<path d="M22.7147 36.7273L21.4432 34.8067C21.263 34.818 21.1257 34.8237 21.0303 34.8237H19.4131V36.7267H18.8335V30.8402H21.032C21.7674 30.8402 22.3359 31.0097 22.7373 31.3486C23.1387 31.6875 23.3394 32.169 23.3394 32.793C23.3394 33.2825 23.2216 33.6896 22.9858 34.0142C22.7501 34.3388 22.4132 34.5663 21.9753 34.6966L23.3903 36.7261L22.7147 36.7273ZM21.0303 34.3017C21.5917 34.3017 22.0248 34.1741 22.3295 33.9187C22.6341 33.6634 22.7857 33.2942 22.7842 32.811C22.7842 32.3396 22.6326 31.9801 22.3295 31.7327C22.0263 31.4853 21.5933 31.362 21.0303 31.3627H19.4131V34.3L21.0303 34.3017Z" fill="white"/>
<path d="M31.8433 36.7273L31.1468 35.1609H27.8791L27.1882 36.7273H26.5669L29.2218 30.8402H29.8284L32.4833 36.7273H31.8433ZM28.1039 34.6372H30.9169L29.5048 31.4542L28.1039 34.6372Z" fill="white"/>
<path d="M39.9629 33.847H40.4764V36.0031C40.1802 36.2502 39.8424 36.4426 39.4788 36.5713C39.1079 36.7077 38.716 36.7777 38.3208 36.7781C37.7861 36.7806 37.2599 36.6436 36.7943 36.3806C36.3287 36.1176 35.9398 35.7376 35.6659 35.2783C35.3921 34.8236 35.2492 34.3021 35.253 33.7713C35.2486 33.2429 35.3916 32.7237 35.6659 32.2721C35.939 31.8189 36.3267 31.4456 36.79 31.1898C37.2643 30.9233 37.8 30.7854 38.344 30.7899C38.7395 30.7893 39.1319 30.8605 39.502 31C39.8651 31.1346 40.2005 31.3344 40.4916 31.5898L40.1527 32.0027C39.9107 31.7779 39.6276 31.602 39.3189 31.4847C39.0072 31.3643 38.6759 31.3028 38.3417 31.3034C37.9013 31.2998 37.468 31.4147 37.0872 31.6361C36.7117 31.8516 36.3984 32.1606 36.1777 32.5331C35.9531 32.9068 35.8358 33.3352 35.8388 33.7713C35.8353 34.2113 35.9525 34.6438 36.1777 35.0219C36.4008 35.3991 36.7187 35.7114 37.0998 35.9278C37.4809 36.1442 37.9119 36.2572 38.3502 36.2556C38.6353 36.2549 38.9184 36.2079 39.1885 36.1166C39.4634 36.0254 39.7231 35.8934 39.9589 35.7251L39.9629 33.847Z" fill="white"/>
<path d="M44.7131 30.8402H48.6548V31.3627H45.2944V33.468H48.3012V33.9899H45.2944V36.2053H48.7644V36.7273H44.7131V30.8402Z" fill="white"/>
<path d="M61.0174 31.4971C60.462 31.261 59.8396 31.2355 59.2668 31.4254C58.6939 31.6153 58.21 32.0075 57.9055 32.5285C57.6844 32.9051 57.5694 33.3345 57.5728 33.7712C57.5689 34.2064 57.684 34.6343 57.9055 35.0089C58.1238 35.3813 58.4353 35.6904 58.8093 35.9059C59.1884 36.1278 59.6207 36.2428 60.0599 36.2386C60.3866 36.2386 60.71 36.1743 61.0117 36.0493C61.3166 35.9256 61.5963 35.7472 61.837 35.5229L62.1912 35.9019C61.8972 36.1726 61.5578 36.3893 61.1885 36.5419C60.8238 36.6971 60.4315 36.7774 60.0351 36.778C59.5022 36.7809 58.9779 36.6439 58.5145 36.3807C58.0511 36.1175 57.6649 35.7374 57.3943 35.2783C57.1232 34.8226 56.982 34.3014 56.9859 33.7712C56.9816 33.2428 57.1245 32.7237 57.3989 32.2721C57.6755 31.8166 58.0656 31.4407 58.5309 31.1809C58.9962 30.9211 59.5208 30.7864 60.0537 30.7899C60.8447 30.7921 61.6057 31.0929 62.1844 31.6321L61.8387 32.036C61.6018 31.8056 61.323 31.6227 61.0174 31.4971Z" fill="white"/>
<path d="M65.9871 30.8402H66.5683V36.2065H69.1633V36.7284H65.9882L65.9871 30.8402Z" fill="white"/>
<path d="M73.7735 35.7506C74.1015 36.0872 74.5578 36.2556 75.1422 36.2556C75.7266 36.2556 76.1814 36.0872 76.5063 35.7506C76.8317 35.4117 76.9946 34.9409 76.995 34.3384V30.8362H77.5762V34.3384C77.5762 35.1021 77.3614 35.6999 76.9317 36.1319C76.502 36.5638 75.9055 36.7801 75.1422 36.7809C74.3785 36.7809 73.7805 36.5645 73.3482 36.1319C72.9159 35.6992 72.6997 35.1 72.6997 34.3345V30.8323H73.281V34.3345C73.281 34.9415 73.4452 35.4135 73.7735 35.7506Z" fill="white"/>
<path d="M85.6733 31.2232C86.0077 31.4845 86.1747 31.8453 86.1743 32.3054C86.1743 32.6542 86.0775 32.9462 85.884 33.1816C85.6904 33.4169 85.4195 33.5713 85.0711 33.6448C85.5038 33.7012 85.8407 33.8613 86.0817 34.1249C86.3227 34.3885 86.4436 34.7225 86.4443 35.127C86.4443 35.6323 86.256 36.0255 85.8794 36.3064C85.5029 36.5873 84.9807 36.7276 84.3131 36.7272H81.8203V30.8323H84.2882C84.8772 30.8323 85.3389 30.9626 85.6733 31.2232ZM85.2315 33.1607C85.4616 32.978 85.5767 32.7184 85.5767 32.3817C85.5767 32.056 85.4616 31.8033 85.2315 31.6237C85.0015 31.444 84.6785 31.357 84.2628 31.3627H82.4016V33.4341H84.2628C84.6782 33.4341 85.0011 33.3429 85.2315 33.1607ZM85.4377 35.9059C85.7156 35.7071 85.8546 35.4278 85.8546 35.0682C85.8606 34.9061 85.825 34.7452 85.7513 34.6008C85.6775 34.4563 85.568 34.3331 85.4332 34.2429C85.1523 34.0464 84.7621 33.9481 84.2628 33.9481H82.4016V36.2076H84.2628C84.7678 36.206 85.1594 36.1055 85.4377 35.9059Z" fill="white"/>
<path d="M16.5632 44.6556C16.762 44.8258 16.8616 45.0667 16.862 45.3781C16.862 45.7008 16.7624 45.9507 16.5632 46.1277C16.364 46.3047 16.0815 46.393 15.7159 46.3926H14.92V47.3444H14.6296V44.4009H15.7159C16.0812 44.4009 16.3636 44.4858 16.5632 44.6556ZM16.3542 45.9401C16.5074 45.8125 16.5841 45.628 16.5841 45.3866C16.5841 45.1452 16.5088 44.9654 16.3581 44.8471C16.2075 44.724 15.99 44.6622 15.7057 44.6618H14.9222V46.1305H15.7057C15.9842 46.1316 16.2017 46.0678 16.3542 45.9401Z" fill="white"/>
<path d="M20.7479 47.3444L20.3982 46.5615H18.7646L18.4189 47.3444H18.1077L19.434 44.4009H19.7367L21.063 47.3444H20.7479ZM18.8781 46.3H20.2847L19.5769 44.7082L18.8781 46.3Z" fill="white"/>
<path d="M24.0157 44.7065C23.8844 44.6677 23.7483 44.6471 23.6113 44.6455C23.441 44.6371 23.2719 44.6787 23.1249 44.7653C23.0683 44.7987 23.0215 44.8465 22.9893 44.9038C22.957 44.9612 22.9405 45.026 22.9414 45.0918C22.9368 45.1994 22.9731 45.3047 23.043 45.3866C23.1118 45.4636 23.1964 45.5247 23.291 45.5657C23.4232 45.6212 23.5582 45.6697 23.6955 45.7109C23.8604 45.757 24.0216 45.8154 24.1779 45.8854C24.3001 45.9431 24.4067 46.0291 24.4891 46.1362C24.5801 46.262 24.6256 46.415 24.6179 46.57C24.6201 46.7197 24.5735 46.866 24.4852 46.9869C24.3897 47.114 24.2605 47.2118 24.1123 47.2693C23.9367 47.3384 23.7492 47.3722 23.5605 47.3688C23.3543 47.3685 23.1503 47.3268 22.9606 47.2462C22.7741 47.1704 22.6034 47.0604 22.4573 46.9219L22.5923 46.6819C22.7243 46.8114 22.88 46.9144 23.051 46.9852C23.2133 47.0556 23.388 47.0929 23.565 47.0948C23.7909 47.0948 23.9692 47.0492 24.0999 46.9581C24.1617 46.9187 24.2124 46.8641 24.247 46.7995C24.2816 46.7349 24.299 46.6625 24.2976 46.5892C24.3019 46.4794 24.2659 46.3717 24.1965 46.2865C24.1289 46.2075 24.0438 46.1454 23.948 46.1051C23.8497 46.0628 23.7124 46.0142 23.5356 45.9577C23.3721 45.9094 23.2118 45.8511 23.0555 45.7832C22.9344 45.7283 22.8288 45.6442 22.7482 45.5386C22.6593 45.4159 22.6147 45.2668 22.6216 45.1155C22.6193 44.9746 22.6638 44.8369 22.7482 44.724C22.8396 44.6063 22.962 44.5165 23.1018 44.4648C23.27 44.4017 23.4486 44.3711 23.6282 44.3744C23.9494 44.3778 24.2636 44.468 24.5377 44.6354L24.4112 44.8839C24.2885 44.8062 24.1553 44.7465 24.0157 44.7065Z" fill="white"/>
<path d="M27.8397 44.7065C27.7084 44.6676 27.5723 44.6471 27.4353 44.6455C27.2649 44.6371 27.0959 44.6787 26.9489 44.7653C26.8923 44.7987 26.8456 44.8466 26.8135 44.9039C26.7813 44.9612 26.7649 45.026 26.7659 45.0918C26.7611 45.1993 26.7973 45.3047 26.867 45.3866C26.9357 45.4636 27.0203 45.5247 27.115 45.5657C27.2471 45.6212 27.3821 45.6697 27.5194 45.7109C27.6844 45.7569 27.8456 45.8153 28.0018 45.8854C28.124 45.9431 28.2307 46.0291 28.3131 46.1362C28.4041 46.262 28.4495 46.415 28.4419 46.57C28.444 46.7197 28.3974 46.866 28.3091 46.9869C28.2137 47.114 28.0845 47.2118 27.9363 47.2693C27.7609 47.3384 27.5735 47.3722 27.385 47.3688C27.1787 47.3686 26.9745 47.3269 26.7845 47.2462C26.5981 47.1704 26.4274 47.0604 26.2812 46.9219L26.4163 46.6819C26.5483 46.8114 26.704 46.9144 26.8749 46.9852C27.0373 47.0556 27.212 47.0929 27.389 47.0948C27.6149 47.0948 27.7917 47.049 27.9239 46.9581C27.9857 46.9187 28.0363 46.8641 28.0709 46.7995C28.1056 46.7349 28.123 46.6625 28.1216 46.5892C28.1258 46.4794 28.0899 46.3717 28.0205 46.2865C27.9529 46.2075 27.8678 46.1454 27.7719 46.1051C27.6736 46.0628 27.5364 46.0142 27.3596 45.9577C27.1961 45.9093 27.0358 45.851 26.8794 45.7832C26.7584 45.7283 26.6528 45.6442 26.5722 45.5386C26.4833 45.4159 26.4387 45.2668 26.4456 45.1155C26.4432 44.9746 26.4877 44.8369 26.5722 44.724C26.6635 44.6063 26.786 44.5165 26.9258 44.4648C27.094 44.4017 27.2726 44.3711 27.4522 44.3744C27.7733 44.3778 28.0876 44.468 28.3617 44.6354L28.2357 44.8839C28.1128 44.8063 27.9795 44.7466 27.8397 44.7065Z" fill="white"/>
<path d="M30.4248 44.4009H30.7151V47.3444H30.4248V44.4009Z" fill="white"/>
<path d="M34.9289 44.576C35.1588 44.7049 35.3511 44.8914 35.487 45.1172C35.624 45.3431 35.6954 45.6026 35.6932 45.8668C35.695 46.1321 35.6237 46.3928 35.487 46.6203C35.3491 46.8501 35.154 47.0402 34.9208 47.1722C34.6876 47.3042 34.4242 47.3736 34.1562 47.3736C33.8882 47.3736 33.6248 47.3042 33.3916 47.1722C33.1584 47.0402 32.9633 46.8501 32.8254 46.6203C32.6887 46.3928 32.6174 46.1321 32.6192 45.8668C32.617 45.6026 32.6884 45.3431 32.8254 45.1172C32.9613 44.8914 33.1536 44.7049 33.3834 44.576C33.6198 44.4445 33.8857 44.3755 34.1562 44.3755C34.4266 44.3755 34.6926 44.4445 34.9289 44.576ZM33.5371 44.802C33.3501 44.909 33.1943 45.063 33.0852 45.2488C32.9725 45.4363 32.9138 45.6514 32.9157 45.8702C32.9149 46.0888 32.9735 46.3036 33.0852 46.4915C33.1937 46.6791 33.3495 46.8349 33.5371 46.9434C33.7252 47.0547 33.9399 47.1132 34.1585 47.1129C34.3756 47.1135 34.5889 47.0549 34.7753 46.9434C34.9626 46.8346 35.1183 46.6788 35.2272 46.4915C35.3389 46.3036 35.3975 46.0888 35.3966 45.8702C35.3985 45.6514 35.3399 45.4363 35.2272 45.2488C35.1178 45.0632 34.9621 44.9092 34.7753 44.802C34.588 44.6934 34.375 44.6368 34.1585 44.6382C33.9406 44.6367 33.7263 44.6928 33.5371 44.8009V44.802Z" fill="white"/>
<path d="M39.7336 44.4009H40.0161V47.3444H39.7088L37.8854 44.8516V47.3444H37.5945V44.4009H37.9023L39.7297 46.8942L39.7336 44.4009Z" fill="white"/>
<path d="M44.6328 44.4009H46.4777V44.6618H44.9237V45.795H46.3088V46.0559H44.9237V47.3444H44.6328V44.4009Z" fill="white"/>
<path d="M50.2781 44.576C50.5078 44.7049 50.7 44.8914 50.8357 45.1172C50.9731 45.3429 51.0447 45.6025 51.0424 45.8668C51.0443 46.1322 50.9727 46.393 50.8357 46.6203C50.6978 46.8501 50.5028 47.0402 50.2696 47.1722C50.0364 47.3042 49.7731 47.3736 49.5051 47.3736C49.2372 47.3736 48.9738 47.3042 48.7406 47.1722C48.5074 47.0402 48.3124 46.8501 48.1746 46.6203C48.0375 46.393 47.9659 46.1322 47.9678 45.8668C47.9656 45.6025 48.0372 45.3429 48.1746 45.1172C48.3103 44.8913 48.5027 44.7048 48.7327 44.576C48.969 44.4445 49.2349 44.3755 49.5054 44.3755C49.7758 44.3755 50.0418 44.4445 50.2781 44.576ZM48.8863 44.802C48.6982 44.9088 48.5413 45.0628 48.431 45.2488C48.3184 45.4364 48.2598 45.6514 48.2616 45.8702C48.261 46.0888 48.3195 46.3035 48.431 46.4915C48.5406 46.6794 48.6976 46.8352 48.8863 46.9434C49.0744 47.0548 49.2891 47.1133 49.5077 47.1129C49.7248 47.1134 49.9381 47.0548 50.1245 46.9434C50.3118 46.8346 50.4676 46.6788 50.5764 46.4915C50.6879 46.3035 50.7464 46.0888 50.7458 45.8702C50.7476 45.6514 50.689 45.4364 50.5764 45.2488C50.467 45.0632 50.3113 44.9092 50.1245 44.802C49.9371 44.6935 49.7242 44.6369 49.5077 44.6382C49.2892 44.6363 49.0742 44.6925 48.8846 44.8009L48.8863 44.802Z" fill="white"/>
<path d="M54.8866 47.3445L54.2505 46.3842C54.1607 46.3899 54.0918 46.3921 54.0444 46.3921H53.2338V47.3439H52.9429V44.4004H54.0421C54.4096 44.4004 54.694 44.4853 54.8951 44.6551C55.0961 44.825 55.1963 45.0658 55.1956 45.3776C55.2036 45.5948 55.1417 45.8089 55.0188 45.9882C54.8937 46.1552 54.7156 46.2746 54.5138 46.3272L55.221 47.3439L54.8866 47.3445ZM54.0444 46.1317C54.3249 46.1317 54.5411 46.0679 54.6928 45.9402C54.8446 45.8126 54.9199 45.628 54.9188 45.3867C54.9188 45.1505 54.8435 44.9707 54.6928 44.8472C54.5422 44.7237 54.326 44.6619 54.0444 44.6619H53.2338V46.1306L54.0444 46.1317Z" fill="white"/>
<path d="M61.405 44.7281C61.1272 44.6106 60.8162 44.5981 60.5298 44.693C60.2435 44.7878 60.0014 44.9836 59.8488 45.2438C59.7403 45.4324 59.6832 45.6462 59.6832 45.8638C59.6832 46.0814 59.7403 46.2951 59.8488 46.4837C59.9581 46.6698 60.1138 46.8243 60.3007 46.9322C60.49 47.0443 60.7061 47.1029 60.926 47.1017C61.0893 47.1016 61.2509 47.0693 61.4016 47.0068C61.5542 46.9449 61.6941 46.8557 61.8146 46.7436L61.9891 46.9311C61.8422 47.0664 61.6726 47.1746 61.4881 47.2508C61.3056 47.3283 61.1095 47.3684 60.9113 47.3689C60.645 47.3701 60.383 47.3015 60.1514 47.17C59.9198 47.0385 59.7267 46.8486 59.5912 46.6193C59.4556 46.3915 59.3849 46.1309 59.3868 45.8658C59.3846 45.6016 59.456 45.3421 59.5929 45.1162C59.7848 44.8033 60.0812 44.5684 60.4296 44.4532C60.778 44.3379 61.156 44.3496 61.4965 44.4863C61.6774 44.558 61.8431 44.663 61.9852 44.7959L61.8123 44.9981C61.695 44.883 61.5567 44.7914 61.405 44.7281Z" fill="white"/>
<path d="M66.0758 47.3444L65.7262 46.5615H64.092L63.7469 47.3444H63.4351L64.7619 44.4009H65.0647L66.3916 47.3444H66.0758ZM64.2055 46.3H65.6126L64.9048 44.7082L64.2055 46.3Z" fill="white"/>
<path d="M70.0802 47.3445L69.4442 46.3842C69.3543 46.3899 69.2854 46.3921 69.238 46.3921H68.4291V47.3439H68.1382V44.4004H69.2374C69.6053 44.4004 69.8897 44.4853 70.0904 44.6551C70.2911 44.825 70.3914 45.0658 70.3914 45.3776C70.3993 45.5948 70.3373 45.8088 70.2146 45.9882C70.0893 46.1552 69.9111 46.2746 69.7091 46.3272L70.4163 47.3439L70.0802 47.3445ZM69.238 46.1317C69.5189 46.1317 69.7351 46.0679 69.8865 45.9402C70.0378 45.8126 70.1132 45.628 70.1124 45.3867C70.1124 45.1505 70.0371 44.9707 69.8865 44.8472C69.7358 44.7237 69.5197 44.6619 69.238 44.6619H68.4291V46.1306L69.238 46.1317Z" fill="white"/>
<path d="M73.6847 44.7065C73.5533 44.6677 73.4172 44.6471 73.2802 44.6455C73.1099 44.6371 72.9408 44.6787 72.7939 44.7653C72.7373 44.7987 72.6904 44.8465 72.6582 44.9038C72.626 44.9612 72.6094 45.026 72.6103 45.0918C72.6058 45.1994 72.6421 45.3047 72.712 45.3866C72.7807 45.4636 72.8653 45.5247 72.96 45.5657C73.0921 45.6212 73.2271 45.6697 73.3644 45.7109C73.5293 45.757 73.6905 45.8154 73.8468 45.8854C73.969 45.9431 74.0757 46.0291 74.158 46.1362C74.2491 46.262 74.2945 46.415 74.2868 46.57C74.289 46.7197 74.2424 46.866 74.1541 46.9869C74.0586 47.114 73.9295 47.2118 73.7813 47.2693C73.6056 47.3384 73.4181 47.3722 73.2294 47.3688C73.0232 47.3686 72.8192 47.3269 72.6295 47.2462C72.443 47.1704 72.2723 47.0604 72.1262 46.9219L72.2612 46.6819C72.3933 46.8114 72.549 46.9144 72.7199 46.9852C72.8822 47.0556 73.057 47.0929 73.2339 47.0948C73.4599 47.0948 73.6382 47.0492 73.7689 46.9581C73.8307 46.9187 73.8813 46.8641 73.9159 46.7995C73.9505 46.7349 73.968 46.6625 73.9666 46.5892C73.9708 46.4794 73.9349 46.3717 73.8654 46.2865C73.7979 46.2075 73.7128 46.1454 73.6169 46.1051C73.5186 46.0628 73.3814 46.0142 73.2046 45.9577C73.0411 45.9094 72.8807 45.8511 72.7244 45.7832C72.6034 45.7283 72.4978 45.6442 72.4171 45.5386C72.3283 45.4159 72.2837 45.2668 72.2906 45.1155C72.2882 44.9746 72.3327 44.8369 72.4171 44.724C72.5084 44.6062 72.6309 44.5164 72.7707 44.4648C72.939 44.4017 73.1176 44.3711 73.2972 44.3744C73.6183 44.3778 73.9326 44.468 74.2066 44.6354L74.0801 44.8839C73.9574 44.8062 73.8243 44.7465 73.6847 44.7065Z" fill="white"/>
<path d="M53.0738 1.06377C53.0275 1.05643 48.3979 0.321533 43.6473 0.321533C38.8968 0.321533 34.2666 1.05586 34.2202 1.06377L33.9841 1.10218V1.34112C33.9841 1.39422 33.9977 6.68025 35.1636 11.8985C36.73 18.9085 39.6633 22.614 43.6468 22.614C47.6302 22.614 50.5636 18.9085 52.1305 11.8985C53.2964 6.68025 53.3105 1.39196 53.3105 1.34112V1.10162L53.0738 1.06377Z" fill="#222220"/>
<path d="M53.0738 1.06377C53.0275 1.05643 48.3979 0.321533 43.6473 0.321533C38.8968 0.321533 34.2666 1.05586 34.2202 1.06377L33.9841 1.10218V1.34112C33.9841 1.39422 33.9977 6.68025 35.1636 11.8985C36.73 18.9085 39.6633 22.614 43.6468 22.614C47.6302 22.614 50.5636 18.9085 52.1305 11.8985C53.2964 6.68025 53.3105 1.39196 53.3105 1.34112V1.10162L53.0738 1.06377ZM46.7976 13.3739C46.8019 13.4134 46.7979 13.4533 46.7858 13.4911C46.7737 13.5289 46.7537 13.5637 46.7272 13.5933C46.7007 13.6229 46.6683 13.6465 46.632 13.6627C46.5958 13.6789 46.5565 13.6873 46.5168 13.6873C46.4771 13.6873 46.4379 13.6789 46.4017 13.6627C46.3654 13.6465 46.333 13.6229 46.3065 13.5933C46.28 13.5637 46.26 13.5289 46.2479 13.4911C46.2358 13.4533 46.2318 13.4134 46.2361 13.3739V10.7456H43.9281V13.3734C43.9324 13.4128 43.9284 13.4528 43.9162 13.4906C43.9041 13.5283 43.8842 13.5632 43.8577 13.5927C43.8312 13.6223 43.7988 13.6459 43.7625 13.6621C43.7263 13.6783 43.687 13.6867 43.6473 13.6867C43.6076 13.6867 43.5684 13.6783 43.5321 13.6621C43.4959 13.6459 43.4635 13.6223 43.437 13.5927C43.4105 13.5632 43.3905 13.5283 43.3784 13.4906C43.3663 13.4528 43.3622 13.4128 43.3666 13.3734V10.7456H41.0585V13.3728C41.0629 13.4123 41.0588 13.4522 41.0467 13.49C41.0346 13.5278 41.0146 13.5626 40.9881 13.5922C40.9617 13.6217 40.9292 13.6454 40.893 13.6616C40.8567 13.6778 40.8175 13.6861 40.7778 13.6861C40.7381 13.6861 40.6989 13.6778 40.6626 13.6616C40.6264 13.6454 40.5939 13.6217 40.5674 13.5922C40.541 13.5626 40.521 13.5278 40.5089 13.49C40.4967 13.4522 40.4927 13.4123 40.4971 13.3728V7.55466C40.4927 7.51521 40.4967 7.47528 40.5089 7.43748C40.521 7.39968 40.541 7.36486 40.5674 7.33529C40.5939 7.30573 40.6264 7.28208 40.6626 7.26589C40.6989 7.2497 40.7381 7.24134 40.7778 7.24134C40.8175 7.24134 40.8567 7.2497 40.893 7.26589C40.9292 7.28208 40.9617 7.30573 40.9881 7.33529C41.0146 7.36486 41.0346 7.39968 41.0467 7.43748C41.0588 7.47528 41.0629 7.51521 41.0585 7.55466V10.1858H43.3666V7.55466C43.3742 7.48552 43.407 7.42162 43.4588 7.37521C43.5106 7.32879 43.5778 7.30312 43.6473 7.30312C43.7169 7.30312 43.784 7.32879 43.8358 7.37521C43.8876 7.42162 43.9205 7.48552 43.9281 7.55466V10.1858H46.2361V7.55466C46.2318 7.51521 46.2358 7.47528 46.2479 7.43748C46.26 7.39968 46.28 7.36486 46.3065 7.33529C46.333 7.30573 46.3654 7.28208 46.4017 7.26589C46.4379 7.2497 46.4771 7.24134 46.5168 7.24134C46.5565 7.24134 46.5958 7.2497 46.632 7.26589C46.6683 7.28208 46.7007 7.30573 46.7272 7.33529C46.7537 7.36486 46.7737 7.39968 46.7858 7.43748C46.7979 7.47528 46.8019 7.51521 46.7976 7.55466V13.3739Z" fill="white"/>
</svg>
