<svg width="149" height="96" viewBox="0 0 149 96" fill="none" xmlns="http://www.w3.org/2000/svg">
<circle cx="3.61013" cy="3.61013" r="3.61013" fill="#590004"/>
<circle cx="3.61013" cy="21.3328" r="3.61013" fill="#590004"/>
<circle cx="3.61013" cy="39.055" r="3.61013" fill="#590004"/>
<circle cx="3.61013" cy="56.7776" r="3.61013" fill="#590004"/>
<circle cx="3.61013" cy="74.4998" r="3.61013" fill="#590004"/>
<circle cx="3.61013" cy="92.2224" r="3.61013" fill="#590004"/>
<circle cx="21.3325" cy="3.61013" r="3.61013" fill="#590004"/>
<circle cx="21.3325" cy="21.3328" r="3.61013" fill="#590004"/>
<circle cx="21.3325" cy="39.055" r="3.61013" fill="#590004"/>
<circle cx="21.3325" cy="56.7776" r="3.61013" fill="#590004"/>
<circle cx="21.3325" cy="74.4998" r="3.61013" fill="#590004"/>
<circle cx="21.3325" cy="92.2224" r="3.61013" fill="#590004"/>
<circle cx="39.055" cy="3.61013" r="3.61013" fill="#590004"/>
<circle cx="39.055" cy="21.3328" r="3.61013" fill="#590004"/>
<circle cx="39.055" cy="39.055" r="3.61013" fill="#590004"/>
<circle cx="39.055" cy="56.7776" r="3.61013" fill="#590004"/>
<circle cx="39.055" cy="74.4998" r="3.61013" fill="#590004"/>
<circle cx="39.055" cy="92.2224" r="3.61013" fill="#590004"/>
<circle cx="56.7776" cy="3.61013" r="3.61013" fill="#590004"/>
<circle cx="56.7776" cy="21.3328" r="3.61013" fill="#590004"/>
<circle cx="56.7776" cy="39.055" r="3.61013" fill="#590004"/>
<circle cx="56.7776" cy="56.7776" r="3.61013" fill="#590004"/>
<circle cx="56.7776" cy="74.4998" r="3.61013" fill="#590004"/>
<circle cx="56.7776" cy="92.2224" r="3.61013" fill="#590004"/>
<circle cx="74.5" cy="3.61013" r="3.61013" fill="#590004"/>
<circle cx="74.5" cy="21.3328" r="3.61013" fill="#590004"/>
<circle cx="74.5" cy="39.055" r="3.61013" fill="#590004"/>
<circle cx="74.5" cy="56.7776" r="3.61013" fill="#590004"/>
<circle cx="74.5" cy="74.4998" r="3.61013" fill="#590004"/>
<circle cx="74.5" cy="92.2224" r="3.61013" fill="#590004"/>
<circle cx="92.2224" cy="3.61013" r="3.61013" fill="#590004"/>
<circle cx="92.2224" cy="21.3328" r="3.61013" fill="#590004"/>
<circle cx="92.2224" cy="39.055" r="3.61013" fill="#590004"/>
<circle cx="92.2224" cy="56.7776" r="3.61013" fill="#590004"/>
<circle cx="92.2224" cy="74.4998" r="3.61013" fill="#590004"/>
<circle cx="92.2224" cy="92.2224" r="3.61013" fill="#590004"/>
<circle cx="109.945" cy="3.61013" r="3.61013" fill="#590004"/>
<circle cx="109.945" cy="21.3328" r="3.61013" fill="#590004"/>
<circle cx="109.945" cy="39.055" r="3.61013" fill="#590004"/>
<circle cx="109.945" cy="56.7776" r="3.61013" fill="#590004"/>
<circle cx="109.945" cy="74.4998" r="3.61013" fill="#590004"/>
<circle cx="109.945" cy="92.2224" r="3.61013" fill="#590004"/>
<circle cx="127.668" cy="3.61013" r="3.61013" fill="#590004"/>
<circle cx="127.668" cy="21.3328" r="3.61013" fill="#590004"/>
<circle cx="127.668" cy="39.055" r="3.61013" fill="#590004"/>
<circle cx="127.668" cy="56.7776" r="3.61013" fill="#590004"/>
<circle cx="127.668" cy="74.4998" r="3.61013" fill="#590004"/>
<circle cx="127.668" cy="92.2224" r="3.61013" fill="#590004"/>
<circle cx="145.39" cy="3.61013" r="3.61013" fill="#590004"/>
<circle cx="145.39" cy="21.3328" r="3.61013" fill="#590004"/>
<circle cx="145.39" cy="39.055" r="3.61013" fill="#590004"/>
<circle cx="145.39" cy="56.7776" r="3.61013" fill="#590004"/>
<circle cx="145.39" cy="74.4998" r="3.61013" fill="#590004"/>
<circle cx="145.39" cy="92.2224" r="3.61013" fill="#590004"/>
</svg>