<svg width="62" height="61" viewBox="0 0 62 61" fill="none" xmlns="http://www.w3.org/2000/svg">
<circle cx="31.0096" cy="30.6307" r="30.369" fill="#379634"/>
<path d="M31.954 42.6346C29.7415 42.6346 27.7359 42.1591 25.937 41.208C24.1588 40.2361 22.7528 38.9025 21.719 37.207C20.7058 35.4908 20.1992 33.5576 20.1992 31.4072C20.1992 29.2568 20.7058 27.3338 21.719 25.6384C22.7528 23.9222 24.1588 22.5885 25.937 21.6374C27.7359 20.6656 29.7519 20.1797 31.985 20.1797C33.8666 20.1797 35.5621 20.5105 37.0715 21.1722C38.6015 21.8338 39.8835 22.785 40.9173 24.0256L37.6918 27.003C36.2237 25.3075 34.4042 24.4598 32.2331 24.4598C30.8891 24.4598 29.6899 24.7596 28.6353 25.3592C27.5808 25.9382 26.7538 26.7549 26.1541 27.8094C25.5752 28.8639 25.2857 30.0632 25.2857 31.4072C25.2857 32.7512 25.5752 33.9504 26.1541 35.0049C26.7538 36.0594 27.5808 36.8865 28.6353 37.4861C29.6899 38.0651 30.8891 38.3546 32.2331 38.3546C34.4042 38.3546 36.2237 37.4965 37.6918 35.7803L40.9173 38.7578C39.8835 40.019 38.6015 40.9805 37.0715 41.6422C35.5414 42.3038 33.8355 42.6346 31.954 42.6346Z" fill="white"/>
</svg>
