<svg width="62" height="61" viewBox="0 0 62 61" fill="none" xmlns="http://www.w3.org/2000/svg">
<circle cx="31.1659" cy="30.6307" r="30.369" fill="#379634"/>
<path d="M21.9661 35.3861V37.7381H12.1602V25.0736H21.7309V27.4255H15.073V30.1755H20.9529V32.4552H15.073V35.3861H21.9661Z" fill="white"/>
<path d="M30.3237 37.9552C29.0331 37.9552 27.8632 37.6778 26.8138 37.1229C25.7765 36.556 24.9564 35.7781 24.3533 34.789C23.7623 33.7879 23.4668 32.6602 23.4668 31.4058C23.4668 30.1514 23.7623 29.0297 24.3533 28.0407C24.9564 27.0396 25.7765 26.2616 26.8138 25.7068C27.8632 25.1399 29.0392 24.8564 30.3418 24.8564C31.4394 24.8564 32.4284 25.0494 33.3089 25.4354C34.2015 25.8214 34.9493 26.3762 35.5523 27.0999L33.6708 28.8367C32.8144 27.8477 31.753 27.3532 30.4865 27.3532C29.7025 27.3532 29.003 27.5281 28.3878 27.8778C27.7727 28.2156 27.2902 28.692 26.9405 29.3071C26.6027 29.9223 26.4339 30.6218 26.4339 31.4058C26.4339 32.1898 26.6027 32.8894 26.9405 33.5045C27.2902 34.1196 27.7727 34.6021 28.3878 34.9519C29.003 35.2896 29.7025 35.4585 30.4865 35.4585C31.753 35.4585 32.8144 34.9579 33.6708 33.9568L35.5523 35.6937C34.9493 36.4294 34.2015 36.9903 33.3089 37.3762C32.4164 37.7622 31.4213 37.9552 30.3237 37.9552Z" fill="white"/>
<path d="M43.3998 37.9552C42.0851 37.9552 40.8971 37.6717 39.8357 37.1048C38.7863 36.538 37.9601 35.76 37.357 34.771C36.766 33.7699 36.4705 32.6481 36.4705 31.4058C36.4705 30.1635 36.766 29.0478 37.357 28.0588C37.9601 27.0577 38.7863 26.2737 39.8357 25.7068C40.8971 25.1399 42.0851 24.8564 43.3998 24.8564C44.7145 24.8564 45.8965 25.1399 46.9459 25.7068C47.9952 26.2737 48.8214 27.0577 49.4245 28.0588C50.0276 29.0478 50.3291 30.1635 50.3291 31.4058C50.3291 32.6481 50.0276 33.7699 49.4245 34.771C48.8214 35.76 47.9952 36.538 46.9459 37.1048C45.8965 37.6717 44.7145 37.9552 43.3998 37.9552ZM43.3998 35.4585C44.1476 35.4585 44.8231 35.2896 45.4261 34.9519C46.0292 34.6021 46.4996 34.1196 46.8373 33.5045C47.1871 32.8894 47.362 32.1898 47.362 31.4058C47.362 30.6218 47.1871 29.9223 46.8373 29.3071C46.4996 28.692 46.0292 28.2156 45.4261 27.8778C44.8231 27.5281 44.1476 27.3532 43.3998 27.3532C42.652 27.3532 41.9766 27.5281 41.3735 27.8778C40.7704 28.2156 40.294 28.692 39.9442 29.3071C39.6065 29.9223 39.4376 30.6218 39.4376 31.4058C39.4376 32.1898 39.6065 32.8894 39.9442 33.5045C40.294 34.1196 40.7704 34.6021 41.3735 34.9519C41.9766 35.2896 42.652 35.4585 43.3998 35.4585Z" fill="white"/>
</svg>
