<svg width="62" height="61" viewBox="0 0 62 61" fill="none" xmlns="http://www.w3.org/2000/svg">
<circle cx="30.8534" cy="30.6307" r="30.369" fill="#379634"/>
<path d="M37.1898 30.9719C38.4304 31.3647 39.4022 32.0264 40.1053 32.9568C40.8083 33.8666 41.1598 34.9935 41.1598 36.3375C41.1598 38.2397 40.4154 39.7078 38.9267 40.7416C37.4586 41.7548 35.3082 42.2614 32.4755 42.2614H21.248V20.5508H31.8552C34.5019 20.5508 36.5282 21.0574 37.9342 22.0705C39.3609 23.0837 40.0742 24.4587 40.0742 26.1955C40.0742 27.2501 39.8158 28.1908 39.2989 29.0179C38.8026 29.845 38.0996 30.4963 37.1898 30.9719ZM26.2415 24.3346V29.4521H31.2349C32.4755 29.4521 33.4163 29.235 34.0573 28.8008C34.6983 28.3666 35.0188 27.7256 35.0188 26.8779C35.0188 26.0301 34.6983 25.3995 34.0573 24.9859C33.4163 24.5517 32.4755 24.3346 31.2349 24.3346H26.2415ZM32.1033 38.4775C33.4267 38.4775 34.4191 38.2604 35.0808 37.8262C35.7631 37.392 36.1043 36.72 36.1043 35.8102C36.1043 34.0114 34.7706 33.1119 32.1033 33.1119H26.2415V38.4775H32.1033Z" fill="white"/>
</svg>
