<svg width="62" height="61" viewBox="0 0 62 61" fill="none" xmlns="http://www.w3.org/2000/svg">
<circle cx="30.6971" cy="30.6307" r="30.369" fill="#379634"/>
<path d="M30.3612 42.6346C28.5623 42.6346 26.9599 42.1901 25.5538 41.301C24.1478 40.4119 23.0416 39.1299 22.2352 37.4551C21.4495 35.7596 21.0566 33.7436 21.0566 31.4072C21.0566 29.0707 21.4495 27.065 22.2352 25.3902C23.0416 23.6947 24.1478 22.4024 25.5538 21.5133C26.9599 20.6242 28.5623 20.1797 30.3612 20.1797C32.1601 20.1797 33.7625 20.6242 35.1685 21.5133C36.5746 22.4024 37.6704 23.6947 38.4561 25.3902C39.2625 27.065 39.6657 29.0707 39.6657 31.4072C39.6657 33.7436 39.2625 35.7596 38.4561 37.4551C37.6704 39.1299 36.5746 40.4119 35.1685 41.301C33.7625 42.1901 32.1601 42.6346 30.3612 42.6346ZM30.3612 38.3856C31.6845 38.3856 32.7183 37.817 33.4627 36.6797C34.2277 35.5425 34.6103 33.785 34.6103 31.4072C34.6103 29.0293 34.2277 27.2718 33.4627 26.1346C32.7183 24.9974 31.6845 24.4288 30.3612 24.4288C29.0585 24.4288 28.0247 24.9974 27.2597 26.1346C26.5153 27.2718 26.1431 29.0293 26.1431 31.4072C26.1431 33.785 26.5153 35.5425 27.2597 36.6797C28.0247 37.817 29.0585 38.3856 30.3612 38.3856Z" fill="white"/>
</svg>
