<svg width="279" height="54" viewBox="0 0 279 54" fill="none" xmlns="http://www.w3.org/2000/svg">
<path d="M85.0165 15.1647H86.2453V20.3348C85.5351 20.9277 84.7247 21.3891 83.8523 21.6971C82.963 22.0247 82.0229 22.1927 81.0753 22.1932C79.7938 22.1985 78.5331 21.8696 77.4175 21.2391C76.3018 20.6085 75.3698 19.6981 74.7133 18.5976C74.0563 17.5067 73.7135 16.2554 73.7227 14.9819C73.712 13.7146 74.055 12.4693 74.7133 11.3863C75.3686 10.2995 76.2983 9.40431 77.4089 8.79051C78.5463 8.15179 79.8308 7.82136 81.1352 7.83204C82.0844 7.83028 83.0259 8.00152 83.9137 8.33737C84.7843 8.65963 85.5886 9.13858 86.2867 9.75048L85.4788 10.7396C84.8993 10.2013 84.2214 9.77986 83.4821 9.49856C82.7345 9.20963 81.9397 9.06222 81.1382 9.06388C80.0817 9.05462 79.0422 9.33057 78.1293 9.8626C77.2288 10.3791 76.4774 11.1199 75.9483 12.0129C75.4111 12.9095 75.1315 13.9368 75.1403 14.9819C75.1304 16.0369 75.4099 17.0743 75.9483 17.9816C76.4835 18.8864 77.2461 19.6355 78.1603 20.1544C79.0745 20.6733 80.1085 20.9441 81.1597 20.9399C81.8429 20.9382 82.5213 20.8262 83.1688 20.6081C83.8267 20.3886 84.4479 20.0717 85.0119 19.6681L85.0165 15.1647Z" fill="white"/>
<path d="M106.954 22.0762L105.276 18.3193H97.4429L95.7826 22.0762H94.2881L100.652 7.95776H102.112L108.476 22.0762H106.954ZM97.9851 17.0675H104.731L101.344 9.43229L97.9851 17.0675Z" fill="white"/>
<path d="M126.16 22.0762L123.111 17.4684C122.68 17.494 122.35 17.5073 122.121 17.5083H118.239V22.0762H116.857V7.95776H122.128C123.894 7.95776 125.257 8.36475 126.219 9.1788C127.18 9.99286 127.661 11.1479 127.662 12.6439C127.662 13.8143 127.38 14.7902 126.815 15.5715C126.249 16.3527 125.439 16.8985 124.383 17.2088L127.776 22.0762H126.16ZM122.121 16.2581C123.467 16.2581 124.504 15.9509 125.231 15.3365C125.958 14.7221 126.322 13.8369 126.323 12.6808C126.323 11.5545 125.959 10.6928 125.231 10.0958C124.503 9.49883 123.466 9.20238 122.121 9.20648H118.239V16.255L122.121 16.2581Z" fill="white"/>
<path d="M148.055 22.0762L146.38 18.3193H138.546L136.886 22.0762H135.391L141.753 7.95776H143.208L149.573 22.0762H148.055ZM139.088 17.0675H145.834L142.44 9.43229L139.088 17.0675Z" fill="white"/>
<path d="M167.527 15.1647H168.756V20.3348C168.045 20.9277 167.235 21.3891 166.363 21.6971C165.473 22.0247 164.533 22.1927 163.586 22.1932C162.304 22.1987 161.043 21.87 159.927 21.2395C158.811 20.6089 157.879 19.6984 157.222 18.5976C156.566 17.5062 156.224 16.2552 156.233 14.982C156.222 13.7148 156.565 12.4698 157.222 11.3863C157.878 10.2998 158.808 9.40469 159.919 8.79052C161.056 8.1516 162.341 7.82116 163.645 7.83205C164.594 7.83013 165.535 8.00138 166.422 8.33738C167.293 8.6593 168.098 9.13828 168.795 9.75049L167.989 10.7396C167.409 10.2018 166.731 9.78042 165.992 9.49857C165.245 9.20978 164.45 9.06238 163.648 9.06389C162.592 9.05463 161.552 9.33058 160.64 9.86261C159.739 10.3786 158.987 11.1195 158.458 12.0129C157.921 12.9093 157.641 13.9367 157.649 14.982C157.64 16.037 157.92 17.0745 158.458 17.9816C158.993 18.8865 159.756 19.6357 160.67 20.1546C161.584 20.6736 162.617 20.9443 163.668 20.9399C164.352 20.9384 165.031 20.8263 165.679 20.6081C166.337 20.3886 166.958 20.0718 167.522 19.6681L167.527 15.1647Z" fill="white"/>
<path d="M178.918 7.95776H188.371V9.20955H180.312V14.2597H187.523V15.5115H180.312V20.8245H188.633V22.0762H178.918V7.95776Z" fill="white"/>
<path d="M218.023 9.53358C216.691 8.96703 215.198 8.90563 213.824 9.36086C212.45 9.81609 211.29 10.7567 210.56 12.0065C210.029 12.9092 209.753 13.939 209.761 14.9862C209.751 16.0302 210.028 17.0569 210.56 17.9552C211.081 18.8472 211.826 19.5882 212.721 20.1056C213.63 20.6373 214.666 20.9128 215.719 20.9027C216.503 20.9008 217.279 20.7442 218.003 20.4419C218.734 20.1452 219.404 19.7174 219.981 19.1794L220.829 20.0887C220.125 20.7387 219.312 21.2587 218.427 21.6246C217.552 21.9965 216.612 22.1892 215.662 22.1914C214.384 22.1983 213.127 21.8699 212.016 21.2389C210.904 20.608 209.978 19.6966 209.329 18.5957C208.68 17.5022 208.341 16.2519 208.351 14.9801C208.34 13.7128 208.682 12.4676 209.34 11.3844C210.003 10.2925 210.937 9.39109 212.052 8.76815C213.167 8.14521 214.425 7.82205 215.702 7.83023C217.599 7.83418 219.425 8.55572 220.812 9.84999L219.984 10.8192C219.418 10.2696 218.752 9.83324 218.023 9.53358Z" fill="white"/>
<path d="M229.938 7.95776H231.333V20.8245H237.554V22.0762H229.938V7.95776Z" fill="white"/>
<path d="M248.613 19.7325C249.399 20.5425 250.493 20.9464 251.895 20.9443C253.297 20.9423 254.387 20.5384 255.167 19.7325C255.947 18.9246 256.338 17.7936 256.339 16.3395V7.94556H257.732V16.3473C257.732 18.1802 257.217 19.6137 256.187 20.6479C255.156 21.6821 253.726 22.2008 251.895 22.2038C250.063 22.2038 248.63 21.6852 247.594 20.6479C246.559 19.6106 246.041 18.1771 246.04 16.3473V7.94556H247.433V16.3473C247.431 17.7972 247.824 18.9256 248.613 19.7325Z" fill="white"/>
<path d="M277.152 8.87635C277.954 9.50302 278.355 10.3683 278.354 11.4721C278.378 12.2329 278.132 12.9777 277.658 13.5733C277.157 14.1592 276.468 14.5519 275.709 14.6838C276.746 14.819 277.554 15.2024 278.132 15.8342C278.711 16.466 279 17.2672 279 18.2379C279 19.4493 278.549 20.3919 277.647 21.0657C276.745 21.7394 275.493 22.0763 273.89 22.0763H267.912V7.94556H273.832C275.244 7.94556 276.351 8.25583 277.152 8.87635ZM276.093 13.5226C276.645 13.0844 276.92 12.4613 276.92 11.6534C276.92 10.8731 276.645 10.2674 276.093 9.83632C275.541 9.40523 274.766 9.19633 273.769 9.20964H269.305V14.1785H273.769C274.765 14.1785 275.54 13.9598 276.093 13.5226ZM276.587 20.1073C276.91 19.8833 277.17 19.5816 277.345 19.2302C277.52 18.8787 277.603 18.4888 277.587 18.0967C277.601 17.7079 277.516 17.3219 277.339 16.9754C277.162 16.6289 276.9 16.3334 276.576 16.1169C275.904 15.6469 274.968 15.4113 273.769 15.4103H269.305V20.8245H273.769C274.981 20.8245 275.921 20.5855 276.587 20.1073Z" fill="white"/>
<path d="M80.4136 41.0913C80.8907 41.5009 81.1298 42.0779 81.1309 42.8224C81.1309 43.5965 80.8918 44.196 80.4136 44.621C79.9354 45.0459 79.2585 45.2579 78.383 45.2569H76.4754V47.5393H75.7781V40.4739H78.3892C79.2606 40.478 79.9354 40.6838 80.4136 41.0913ZM79.9129 44.171C80.2794 43.8638 80.4632 43.4209 80.4643 42.8424C80.4643 42.2771 80.2815 41.8471 79.919 41.5506C79.5565 41.2542 79.0327 41.1067 78.3539 41.1067H76.4754V44.6302H78.3539C79.0266 44.6302 79.5463 44.4771 79.9129 44.171Z" fill="white"/>
<path d="M90.4524 47.5393L89.6137 45.6608H85.6955L84.8676 47.5393H84.1196L87.3006 40.4739H88.0286L91.2096 47.5393H90.4524ZM85.9674 45.0342H89.3465L87.6569 41.2173L85.9674 45.0342Z" fill="white"/>
<path d="M98.2887 41.2128C97.9744 41.1167 97.6482 41.065 97.3195 41.0592C96.9106 41.0396 96.5049 41.1401 96.1522 41.348C96.0166 41.428 95.9046 41.5425 95.8275 41.6798C95.7503 41.817 95.7108 41.9723 95.7129 42.1297C95.7019 42.3874 95.7885 42.6398 95.9556 42.8363C96.1203 43.0217 96.3238 43.1684 96.5516 43.2663C96.8679 43.4004 97.1915 43.5168 97.5207 43.615C97.9161 43.7261 98.3027 43.8662 98.6773 44.0343C98.9707 44.1725 99.227 44.3783 99.4253 44.6349C99.6277 44.937 99.7348 45.2928 99.7329 45.6564C99.7309 46.02 99.6201 46.3747 99.4146 46.6746C99.1853 46.9776 98.8756 47.2101 98.5207 47.3458C98.0997 47.5112 97.6504 47.592 97.1982 47.5839C96.7037 47.5831 96.2144 47.4834 95.759 47.2906C95.3117 47.1089 94.9023 46.8453 94.5518 46.5134L94.8758 45.9374C95.1919 46.2485 95.5654 46.4953 95.9756 46.6639C96.3633 46.8333 96.7813 46.9226 97.2044 46.9265C97.6552 46.9502 98.1025 46.8361 98.4869 46.5994C98.6354 46.5052 98.757 46.3742 98.8402 46.2192C98.9233 46.0643 98.9651 45.8905 98.9615 45.7146C98.9729 45.4511 98.8871 45.1925 98.7203 44.9881C98.5577 44.7994 98.3538 44.6507 98.1244 44.5535C97.8879 44.4521 97.5576 44.3354 97.1337 44.2002C96.7419 44.0845 96.3576 43.9444 95.9833 43.7809C95.6927 43.6501 95.4393 43.449 95.246 43.1957C95.0312 42.902 94.9228 42.544 94.9388 42.1804C94.9335 41.8421 95.0416 41.5116 95.246 41.2419C95.4659 40.9621 95.7595 40.7493 96.0938 40.6275C96.4972 40.4762 96.9257 40.4028 97.3564 40.411C98.1265 40.4191 98.8801 40.635 99.5375 41.0361L99.2303 41.6336C98.9381 41.4491 98.6211 41.3073 98.2887 41.2128Z" fill="white"/>
<path d="M107.458 41.2128C107.144 41.1167 106.818 41.065 106.489 41.0592C106.081 41.0394 105.675 41.1398 105.323 41.348C105.187 41.4277 105.075 41.5421 104.998 41.6794C104.92 41.8167 104.88 41.9721 104.883 42.1297C104.872 42.3874 104.958 42.6398 105.125 42.8363C105.29 43.0212 105.494 43.1679 105.721 43.2663C106.038 43.4002 106.361 43.5166 106.69 43.615C107.086 43.7256 107.473 43.8657 107.847 44.0343C108.14 44.1725 108.397 44.3783 108.595 44.6349C108.797 44.937 108.904 45.2928 108.903 45.6564C108.901 46.02 108.79 46.3747 108.584 46.6746C108.355 46.9776 108.045 47.2101 107.69 47.3458C107.269 47.5112 106.82 47.592 106.368 47.5839C105.873 47.583 105.384 47.4833 104.929 47.2906C104.481 47.1089 104.072 46.8453 103.721 46.5134L104.046 45.9374C104.362 46.2479 104.735 46.4945 105.145 46.6639C105.533 46.8331 105.951 46.9224 106.374 46.9265C106.825 46.9497 107.272 46.8356 107.657 46.5994C107.805 46.5052 107.927 46.3742 108.01 46.2192C108.093 46.0643 108.135 45.8905 108.131 45.7146C108.142 45.4509 108.056 45.1923 107.888 44.9881C107.726 44.7991 107.522 44.6503 107.293 44.5535C107.056 44.4521 106.727 44.3354 106.303 44.2002C105.911 44.0847 105.526 43.9447 105.151 43.7809C104.861 43.6497 104.608 43.4486 104.414 43.1957C104.2 42.9017 104.092 42.5439 104.107 42.1804C104.102 41.8422 104.211 41.512 104.414 41.2419C104.635 40.9628 104.928 40.7501 105.262 40.6275C105.665 40.4762 106.094 40.4028 106.525 40.411C107.295 40.4191 108.048 40.635 108.706 41.0361L108.398 41.6336C108.107 41.4487 107.79 41.3069 107.458 41.2128Z" fill="white"/>
<path d="M113.659 40.4802H114.356V47.5456H113.659V40.4802Z" fill="white"/>
<path d="M124.46 40.8994C125.012 41.2085 125.473 41.6558 125.8 42.1973C126.128 42.7389 126.299 43.3611 126.294 43.9944C126.298 44.6309 126.127 45.2564 125.8 45.8022C125.469 46.3535 125.001 46.8097 124.442 47.1265C123.883 47.4433 123.251 47.6098 122.608 47.6098C121.965 47.6098 121.333 47.4433 120.774 47.1265C120.214 46.8097 119.747 46.3535 119.416 45.8022C119.088 45.2566 118.917 44.631 118.922 43.9944C118.916 43.361 119.087 42.7386 119.416 42.1973C119.742 41.6559 120.203 41.2086 120.754 40.8994C121.321 40.5841 121.959 40.4187 122.607 40.4187C123.256 40.4187 123.893 40.5841 124.46 40.8994ZM121.123 41.44C120.671 41.697 120.295 42.0677 120.032 42.5152C119.764 42.9638 119.624 43.4777 119.628 44.0005C119.625 44.5261 119.764 45.0427 120.032 45.495C120.294 45.9462 120.67 46.3206 121.123 46.5809C121.576 46.8456 122.092 46.9835 122.617 46.9803C123.138 46.9831 123.649 46.8451 124.098 46.5809C124.548 46.3195 124.921 45.9452 125.182 45.495C125.45 45.043 125.59 44.5262 125.586 44.0005C125.591 43.4777 125.451 42.9636 125.182 42.5152C124.92 42.0686 124.546 41.6981 124.098 41.44C123.648 41.1789 123.137 41.0426 122.617 41.0453C122.093 41.042 121.577 41.1782 121.123 41.44Z" fill="white"/>
<path d="M135.978 40.4802H136.671V47.5456H135.933L131.561 41.5677V47.5456H130.865V40.4802H131.602L135.984 46.4582L135.978 40.4802Z" fill="white"/>
<path d="M147.73 40.4802H152.155V41.1069H148.427V43.8225H151.749V44.4492H148.427V47.5395H147.73V40.4802Z" fill="white"/>
<path d="M161.271 40.8994C161.822 41.2085 162.284 41.6558 162.61 42.1973C162.938 42.7389 163.109 43.3611 163.105 43.9944C163.109 44.6309 162.938 45.2564 162.61 45.8022C162.279 46.3535 161.812 46.8097 161.252 47.1265C160.693 47.4433 160.061 47.6098 159.418 47.6098C158.776 47.6098 158.144 47.4433 157.584 47.1265C157.025 46.8097 156.557 46.3535 156.227 45.8022C155.898 45.2566 155.727 44.631 155.732 43.9944C155.726 43.361 155.898 42.7386 156.227 42.1973C156.552 41.6559 157.013 41.2086 157.564 40.8994C158.131 40.5841 158.769 40.4187 159.418 40.4187C160.066 40.4187 160.704 40.5841 161.271 40.8994ZM157.933 41.44C157.482 41.697 157.106 42.0677 156.843 42.5152C156.574 42.9638 156.434 43.4777 156.439 44.0005C156.435 44.5261 156.575 45.0427 156.843 45.495C157.105 45.9462 157.481 46.3206 157.933 46.5809C158.387 46.8456 158.904 46.9835 159.429 46.9803C159.949 46.9831 160.46 46.845 160.908 46.5809C161.358 46.3191 161.732 45.9449 161.994 45.495C162.262 45.0427 162.401 44.5261 162.398 44.0005C162.402 43.4777 162.263 42.9638 161.994 42.5152C161.731 42.0689 161.357 41.6984 160.908 41.44C160.459 41.1787 159.949 41.0424 159.429 41.0453C158.904 41.0419 158.388 41.1781 157.933 41.44Z" fill="white"/>
<path d="M172.325 47.5391L170.8 45.2351C170.585 45.2489 170.419 45.2551 170.305 45.2551H168.367V47.5376H167.669V40.4722H170.308C171.19 40.4722 171.871 40.677 172.353 41.0865C172.834 41.4961 173.074 42.0731 173.074 42.8176C173.094 43.3388 172.945 43.8525 172.651 44.2829C172.351 44.6851 171.924 44.9733 171.439 45.1L173.136 47.5345L172.325 47.5391ZM170.308 44.63C170.981 44.63 171.5 44.4764 171.864 44.1692C172.229 43.862 172.41 43.4191 172.409 42.8406C172.409 42.2754 172.227 41.8453 171.864 41.5488C171.502 41.2524 170.981 41.105 170.308 41.105H168.37V44.6285L170.308 44.63Z" fill="white"/>
<path d="M187.958 41.2758C187.292 40.9924 186.545 40.9617 185.859 41.1893C185.172 41.4169 184.592 41.8873 184.227 42.5122C183.965 42.9644 183.827 43.4775 183.827 43.9998C183.827 44.5222 183.965 45.0353 184.227 45.4874C184.486 45.9327 184.857 46.3031 185.302 46.5626C185.757 46.8288 186.275 46.9668 186.803 46.9619C187.194 46.9612 187.582 46.884 187.944 46.7346C188.309 46.5855 188.644 46.3717 188.933 46.1034L189.357 46.5642C189.005 46.8889 188.598 47.1488 188.156 47.3321C187.718 47.5178 187.248 47.6139 186.773 47.6147C186.135 47.6189 185.506 47.4551 184.95 47.1397C184.395 46.8243 183.932 46.3683 183.608 45.8176C183.282 45.2711 183.113 44.6459 183.118 44.0098C183.112 43.3764 183.283 42.7541 183.612 42.2128C183.944 41.6669 184.411 41.2161 184.969 40.9044C185.526 40.5928 186.155 40.4307 186.793 40.4341C187.267 40.4341 187.736 40.5253 188.176 40.7029C188.61 40.8695 189.01 41.1159 189.354 41.4294L188.939 41.9148C188.655 41.6414 188.322 41.4245 187.958 41.2758Z" fill="white"/>
<path d="M199.158 47.5393L198.319 45.6608H194.401L193.573 47.5393H192.827L196.008 40.4739H196.734L199.915 47.5393H199.158ZM194.674 45.0342H198.054L196.364 41.2173L194.674 45.0342Z" fill="white"/>
<path d="M208.762 47.5391L207.237 45.2351C207.022 45.2489 206.858 45.2551 206.742 45.2551H204.804V47.5376H204.107V40.4722H206.742C207.624 40.4722 208.306 40.677 208.788 41.0865C209.271 41.4961 209.511 42.0731 209.51 42.8176C209.53 43.3391 209.381 43.853 209.085 44.2829C208.786 44.6847 208.359 44.9728 207.874 45.1L209.564 47.5345L208.762 47.5391ZM206.742 44.63C207.415 44.63 207.934 44.4764 208.298 44.1692C208.663 43.862 208.845 43.4191 208.844 42.8406C208.844 42.2754 208.661 41.8453 208.298 41.5488C207.936 41.2524 207.415 41.105 206.742 41.105H204.804V44.6285L206.742 44.63Z" fill="white"/>
<path d="M217.408 41.2128C217.093 41.1166 216.767 41.0649 216.437 41.0592C216.029 41.0397 215.624 41.1401 215.272 41.348C215.136 41.4278 215.024 41.5422 214.946 41.6796C214.869 41.8169 214.83 41.9723 214.832 42.1298C214.82 42.3876 214.907 42.6402 215.075 42.8363C215.24 43.0217 215.443 43.1685 215.671 43.2664C215.987 43.4007 216.311 43.5171 216.64 43.615C217.035 43.7261 217.422 43.8663 217.797 44.0343C218.089 44.173 218.345 44.3788 218.543 44.6349C218.746 44.9367 218.854 45.2925 218.852 45.6562C218.85 46.0199 218.74 46.3747 218.534 46.6746C218.305 46.9776 217.995 47.2102 217.64 47.3459C217.219 47.5113 216.769 47.5922 216.316 47.5839C215.822 47.5832 215.333 47.4834 214.878 47.2906C214.431 47.109 214.022 46.8454 213.671 46.5134L213.994 45.9374C214.311 46.2482 214.685 46.4949 215.095 46.6639C215.483 46.8333 215.901 46.9226 216.324 46.9266C216.775 46.9502 217.222 46.8361 217.606 46.5994C217.755 46.5052 217.876 46.3742 217.96 46.2192C218.043 46.0643 218.084 45.8905 218.081 45.7147C218.092 45.4509 218.006 45.1923 217.838 44.9882C217.676 44.7988 217.472 44.6499 217.242 44.5535C217.007 44.4521 216.677 44.3354 216.253 44.2002C215.861 44.0842 215.476 43.9442 215.101 43.7809C214.811 43.6493 214.558 43.4483 214.364 43.1957C214.15 42.9017 214.041 42.5439 214.057 42.1805C214.052 41.8422 214.16 41.5121 214.364 41.2419C214.585 40.9624 214.879 40.7497 215.213 40.6276C215.617 40.4761 216.045 40.4026 216.476 40.411C217.246 40.4196 217.999 40.6355 218.657 41.0362L218.35 41.6337C218.058 41.4491 217.74 41.3073 217.408 41.2128Z" fill="white"/>
<path d="M45.7899 1.78015C45.6793 1.76325 34.5774 0 23.1791 0C11.7808 0 0.677356 1.76329 0.566767 1.78172L0 1.87232V2.4468C0 2.57275 0.0322525 15.2535 2.82922 27.77C6.58617 44.5841 13.6224 53.4727 23.1775 53.4727C32.7327 53.4727 39.7658 44.5841 43.5274 27.7685C46.3244 15.2536 46.3566 2.57885 46.3566 2.44523V1.87082L45.7899 1.78015Z" fill="#222220"/>
<path d="M45.7899 1.78015C45.6793 1.76325 34.5774 0 23.1791 0C11.7808 0 0.677356 1.76329 0.566767 1.78172L0 1.87232V2.4468C0 2.57275 0.0322525 15.2535 2.82922 27.77C6.58617 44.5841 13.6224 53.4727 23.1775 53.4727C32.7327 53.4727 39.7658 44.5841 43.5274 27.7685C46.3244 15.2536 46.3566 2.57885 46.3566 2.44523V1.87082L45.7899 1.78015ZM30.7375 31.3089C30.7292 31.4819 30.6547 31.6452 30.5293 31.7648C30.4039 31.8843 30.2372 31.951 30.064 31.951C29.8907 31.951 29.7241 31.8843 29.5987 31.7648C29.4733 31.6452 29.3987 31.4819 29.3905 31.3089V25.0114H23.861V31.3089C23.8528 31.4819 23.7782 31.6452 23.6528 31.7648C23.5274 31.8843 23.3608 31.951 23.1875 31.951C23.0143 31.951 22.8476 31.8843 22.7222 31.7648C22.5968 31.6452 22.5223 31.4819 22.514 31.3089V25.0114H16.9846V31.3089C16.9763 31.4819 16.9017 31.6452 16.7763 31.7648C16.6509 31.8843 16.4843 31.951 16.3111 31.951C16.1378 31.951 15.9712 31.8843 15.8458 31.7648C15.7204 31.6452 15.6458 31.4819 15.6375 31.3089V17.3471C15.6458 17.174 15.7204 17.0108 15.8458 16.8912C15.9712 16.7717 16.1378 16.7049 16.3111 16.7049C16.4843 16.7049 16.6509 16.7717 16.7763 16.8912C16.9017 17.0108 16.9763 17.174 16.9846 17.3471V23.6583H22.514V17.3471C22.5223 17.174 22.5968 17.0108 22.7222 16.8912C22.8476 16.7717 23.0143 16.7049 23.1875 16.7049C23.3608 16.7049 23.5274 16.7717 23.6528 16.8912C23.7782 17.0108 23.8528 17.174 23.861 17.3471V23.6583H29.3905V17.3471C29.3987 17.174 29.4733 17.0108 29.5987 16.8912C29.7241 16.7717 29.8907 16.7049 30.064 16.7049C30.2372 16.7049 30.4039 16.7717 30.5293 16.8912C30.6547 17.0108 30.7292 17.174 30.7375 17.3471V31.3089Z" fill="white"/>
</svg>
