<svg width="277" height="54" viewBox="0 0 277 54" fill="none" xmlns="http://www.w3.org/2000/svg">
<path d="M84.8383 15.1647H86.0506V20.3348C85.3499 20.9277 84.5503 21.3891 83.6896 21.6971C82.8122 22.0247 81.8847 22.1927 80.9497 22.1932C79.6853 22.1985 78.4415 21.8696 77.3407 21.2391C76.24 20.6085 75.3205 19.6981 74.6728 18.5976C74.0245 17.5067 73.6863 16.2554 73.6953 14.9819C73.6847 13.7146 74.0232 12.4693 74.6728 11.3863C75.3193 10.2995 76.2365 9.40431 77.3323 8.79051C78.4545 8.15179 79.7218 7.82136 81.0088 7.83204C81.9453 7.83028 82.8743 8.00152 83.7502 8.33737C84.6092 8.65963 85.4027 9.13858 86.0915 9.75048L85.2944 10.7396C84.7227 10.2013 84.0537 9.77986 83.3244 9.49856C82.5868 9.20963 81.8026 9.06222 81.0118 9.06388C79.9694 9.05462 78.9438 9.33057 78.0431 9.8626C77.1546 10.3791 76.4133 11.1199 75.8912 12.0129C75.3612 12.9095 75.0853 13.9368 75.094 14.9819C75.0843 16.0369 75.36 17.0743 75.8912 17.9816C76.4193 18.8864 77.1716 19.6355 78.0736 20.1544C78.9756 20.6733 79.9959 20.9441 81.033 20.9399C81.7071 20.9382 82.3764 20.8262 83.0152 20.6081C83.6643 20.3886 84.2773 20.0717 84.8337 19.6681L84.8383 15.1647Z" fill="#222220"/>
<path d="M106.482 22.0762L104.827 18.3193H97.0987L95.4605 22.0762H93.986L100.264 7.95776H101.706L107.984 22.0762H106.482ZM97.6336 17.0675H104.289L100.948 9.43229L97.6336 17.0675Z" fill="#222220"/>
<path d="M125.432 22.0762L122.424 17.4684C121.999 17.494 121.673 17.5073 121.447 17.5083H117.617V22.0762H116.253V7.95776H121.454C123.196 7.95776 124.541 8.36475 125.49 9.1788C126.439 9.99286 126.913 11.1479 126.914 12.6439C126.914 13.8143 126.636 14.7902 126.078 15.5715C125.52 16.3527 124.721 16.8985 123.679 17.2088L127.027 22.0762H125.432ZM121.447 16.2581C122.775 16.2581 123.798 15.9509 124.516 15.3365C125.233 14.7221 125.592 13.8369 125.593 12.6808C125.593 11.5545 125.234 10.6928 124.516 10.0958C123.797 9.49883 122.774 9.20238 121.447 9.20648H117.617V16.255L121.447 16.2581Z" fill="#222220"/>
<path d="M147.035 22.0762L145.382 18.3193H137.653L136.015 22.0762H134.54L140.817 7.95776H142.252L148.532 22.0762H147.035ZM138.188 17.0675H144.844L141.495 9.43229L138.188 17.0675Z" fill="#222220"/>
<path d="M166.246 15.1647H167.459V20.3348C166.758 20.9277 165.958 21.3891 165.098 21.6971C164.22 22.0247 163.293 22.1927 162.358 22.1932C161.093 22.1987 159.849 21.87 158.748 21.2395C157.647 20.6089 156.727 19.6984 156.079 18.5976C155.432 17.5062 155.094 16.2552 155.103 14.982C155.093 13.7148 155.431 12.4698 156.079 11.3863C156.727 10.2998 157.644 9.40469 158.74 8.79052C159.862 8.1516 161.13 7.82116 162.417 7.83205C163.353 7.83013 164.281 8.00138 165.157 8.33738C166.016 8.65929 166.809 9.13828 167.498 9.75049L166.702 10.7396C166.13 10.2018 165.461 9.78042 164.732 9.49857C163.995 9.20978 163.211 9.06238 162.42 9.06389C161.377 9.05463 160.352 9.33058 159.451 9.86261C158.562 10.3786 157.821 11.1195 157.299 12.0129C156.769 12.9093 156.492 13.9367 156.5 14.982C156.491 16.037 156.767 17.0745 157.299 17.9816C157.827 18.8865 158.579 19.6357 159.481 20.1546C160.382 20.6736 161.402 20.9443 162.439 20.9399C163.114 20.9384 163.784 20.8263 164.423 20.6081C165.072 20.3886 165.685 20.0718 166.242 19.6681L166.246 15.1647Z" fill="#222220"/>
<path d="M177.486 7.95776H186.812V9.20955H178.86V14.2597H185.975V15.5115H178.86V20.8244H187.071V22.0762H177.486V7.95776Z" fill="#222220"/>
<path d="M216.068 9.53358C214.754 8.96703 213.281 8.90563 211.925 9.36086C210.57 9.81609 209.424 10.7567 208.704 12.0065C208.18 12.9092 207.908 13.939 207.916 14.9862C207.907 16.0302 208.179 17.0569 208.704 17.9552C209.219 18.8472 209.954 19.5882 210.836 20.1056C211.733 20.6373 212.755 20.9128 213.794 20.9027C214.568 20.9008 215.334 20.7442 216.048 20.4419C216.769 20.1452 217.431 19.7174 218 19.1794L218.836 20.0887C218.142 20.7387 217.34 21.2587 216.466 21.6246C215.603 21.9965 214.676 22.1892 213.738 22.1914C212.478 22.1983 211.237 21.8699 210.141 21.2389C209.044 20.608 208.13 19.6966 207.49 18.5957C206.849 17.5022 206.515 16.2519 206.525 14.9801C206.514 13.7128 206.852 12.4676 207.501 11.3844C208.155 10.2925 209.077 9.39109 210.177 8.76815C211.277 8.14521 212.518 7.82205 213.778 7.83023C215.65 7.83418 217.451 8.55572 218.82 9.84999L218.003 10.8192C217.444 10.2696 216.788 9.83324 216.068 9.53358Z" fill="#222220"/>
<path d="M227.824 7.95776H229.2V20.8244H235.338V22.0762H227.824V7.95776Z" fill="#222220"/>
<path d="M246.249 19.7325C247.025 20.5425 248.104 20.9464 249.487 20.9443C250.87 20.9423 251.946 20.5384 252.715 19.7325C253.485 18.9246 253.87 17.7936 253.871 16.3395V7.94556H255.246V16.3473C255.246 18.1802 254.738 19.6137 253.721 20.6479C252.705 21.6821 251.294 22.2008 249.487 22.2038C247.68 22.2038 246.266 21.6852 245.244 20.6479C244.223 19.6106 243.712 18.1771 243.711 16.3473V7.94556H245.085V16.3473C245.083 17.7972 245.471 18.9256 246.249 19.7325Z" fill="#222220"/>
<path d="M274.407 8.87635C275.198 9.50302 275.593 10.3683 275.592 11.4721C275.617 12.2329 275.373 12.9777 274.906 13.5733C274.412 14.1592 273.732 14.5519 272.983 14.6838C274.006 14.819 274.803 15.2024 275.374 15.8342C275.945 16.466 276.23 17.2672 276.23 18.2379C276.23 19.4493 275.785 20.3919 274.895 21.0657C274.005 21.7394 272.77 22.0763 271.188 22.0763H265.29V7.94556H271.131C272.524 7.94556 273.616 8.25583 274.407 8.87635ZM273.362 13.5226C273.906 13.0844 274.178 12.4613 274.178 11.6534C274.178 10.8731 273.906 10.2674 273.362 9.83632C272.817 9.40523 272.053 9.19633 271.069 9.20964H266.665V14.1785H271.069C272.052 14.1785 272.816 13.9598 273.362 13.5226ZM273.85 20.1073C274.168 19.8833 274.425 19.5816 274.597 19.2302C274.77 18.8787 274.852 18.4888 274.836 18.0967C274.85 17.7079 274.766 17.3219 274.591 16.9754C274.417 16.6289 274.158 16.3334 273.839 16.1169C273.175 15.6469 272.252 15.4113 271.069 15.4103H266.665V20.8245H271.069C272.265 20.8245 273.192 20.5855 273.85 20.1073Z" fill="#222220"/>
<path d="M80.2968 41.0913C80.7676 41.5009 81.0035 42.0779 81.0045 42.8224C81.0045 43.5965 80.7686 44.196 80.2968 44.621C79.825 45.0459 79.1572 45.2579 78.2934 45.2569H76.4113V47.5393H75.7233V40.4739H78.2995C79.1593 40.478 79.825 40.6838 80.2968 41.0913ZM79.8028 44.171C80.1645 43.8638 80.3458 43.4209 80.3469 42.8424C80.3469 42.2771 80.1665 41.8471 79.8089 41.5506C79.4512 41.2542 78.9345 41.1067 78.2646 41.1067H76.4113V44.6302H78.2646C78.9284 44.6302 79.4411 44.4771 79.8028 44.171Z" fill="#222220"/>
<path d="M90.2015 47.5393L89.3741 45.6608H85.5082L84.6914 47.5393H83.9534L87.0918 40.4739H87.8102L90.9486 47.5393H90.2015ZM85.7764 45.0342H89.1104L87.4434 41.2173L85.7764 45.0342Z" fill="#222220"/>
<path d="M97.9333 41.2128C97.6232 41.1167 97.3013 41.065 96.9771 41.0592C96.5736 41.0396 96.1733 41.1401 95.8253 41.348C95.6916 41.428 95.581 41.5425 95.5049 41.6798C95.4288 41.817 95.3898 41.9723 95.3919 42.1297C95.381 42.3874 95.4665 42.6398 95.6314 42.8363C95.7939 43.0217 95.9946 43.1684 96.2194 43.2663C96.5315 43.4004 96.8507 43.5168 97.1756 43.615C97.5656 43.7261 97.9471 43.8662 98.3167 44.0343C98.6062 44.1725 98.8591 44.3783 99.0547 44.6349C99.2544 44.937 99.3601 45.2928 99.3582 45.6564C99.3563 46.02 99.2469 46.3747 99.0441 46.6746C98.8179 46.9776 98.5123 47.2101 98.1621 47.3458C97.7468 47.5112 97.3035 47.592 96.8574 47.5839C96.3695 47.5831 95.8867 47.4834 95.4374 47.2906C94.9961 47.1089 94.5921 46.8453 94.2463 46.5134L94.566 45.9374C94.8778 46.2485 95.2464 46.4953 95.6511 46.6639C96.0336 46.8333 96.446 46.9226 96.8634 46.9265C97.3082 46.9502 97.7496 46.8361 98.1288 46.5994C98.2753 46.5052 98.3954 46.3742 98.4774 46.2192C98.5594 46.0643 98.6006 45.8905 98.5971 45.7146C98.6084 45.4511 98.5237 45.1925 98.3592 44.9881C98.1987 44.7994 97.9975 44.6507 97.7712 44.5535C97.5378 44.4521 97.212 44.3354 96.7937 44.2002C96.4071 44.0845 96.028 43.9444 95.6587 43.7809C95.372 43.6501 95.122 43.449 94.9313 43.1957C94.7193 42.902 94.6124 42.5439 94.6282 42.1804C94.6229 41.8421 94.7296 41.5116 94.9313 41.2419C95.1482 40.9621 95.4379 40.7493 95.7678 40.6275C96.1657 40.4762 96.5885 40.4028 97.0135 40.411C97.7732 40.4191 98.5167 40.635 99.1654 41.0361L98.8623 41.6336C98.5741 41.4491 98.2612 41.3073 97.9333 41.2128Z" fill="#222220"/>
<path d="M106.98 41.2128C106.67 41.1167 106.348 41.065 106.024 41.0592C105.621 41.0394 105.221 41.1398 104.874 41.348C104.74 41.4277 104.629 41.5421 104.552 41.6794C104.476 41.8167 104.437 41.9721 104.439 42.1297C104.428 42.3874 104.514 42.6398 104.678 42.8363C104.841 43.0212 105.042 43.1679 105.266 43.2663C105.579 43.4002 105.898 43.5166 106.223 43.615C106.613 43.7256 106.994 43.8657 107.364 44.0343C107.653 44.1725 107.906 44.3783 108.102 44.6349C108.301 44.937 108.407 45.2928 108.405 45.6564C108.403 46.02 108.294 46.3747 108.091 46.6746C107.865 46.9776 107.559 47.2101 107.209 47.3458C106.794 47.5112 106.351 47.592 105.904 47.5839C105.417 47.583 104.934 47.4833 104.484 47.2906C104.043 47.1089 103.639 46.8453 103.293 46.5134L103.613 45.9374C103.925 46.2479 104.294 46.4945 104.698 46.6639C105.081 46.8331 105.493 46.9224 105.91 46.9265C106.355 46.9497 106.796 46.8356 107.176 46.5994C107.322 46.5052 107.442 46.3742 107.524 46.2192C107.606 46.0643 107.648 45.8905 107.644 45.7146C107.655 45.4509 107.57 45.1923 107.405 44.9881C107.245 44.7991 107.043 44.6503 106.817 44.5535C106.583 44.4521 106.259 44.3354 105.841 44.2002C105.454 44.0847 105.074 43.9447 104.704 43.7809C104.418 43.6497 104.168 43.4486 103.977 43.1957C103.765 42.9017 103.659 42.5439 103.674 42.1804C103.669 41.8422 103.776 41.512 103.977 41.2419C104.194 40.9628 104.484 40.7501 104.813 40.6275C105.211 40.4762 105.634 40.4028 106.059 40.411C106.819 40.4191 107.562 40.635 108.211 41.0361L107.908 41.6336C107.62 41.4487 107.308 41.3069 106.98 41.2128Z" fill="#222220"/>
<path d="M113.098 40.4802H113.786V47.5456H113.098V40.4802Z" fill="#222220"/>
<path d="M123.755 40.8994C124.299 41.2085 124.754 41.6558 125.076 42.1973C125.4 42.7389 125.569 43.3611 125.564 43.9944C125.568 44.6309 125.4 45.2564 125.076 45.8022C124.75 46.3535 124.289 46.8097 123.737 47.1265C123.185 47.4433 122.562 47.6098 121.927 47.6098C121.293 47.6098 120.67 47.4433 120.118 47.1265C119.566 46.8097 119.104 46.3535 118.778 45.8022C118.454 45.2566 118.286 44.631 118.29 43.9944C118.285 43.361 118.454 42.7386 118.778 42.1973C119.1 41.6559 119.555 41.2086 120.098 40.8994C120.657 40.5841 121.287 40.4187 121.927 40.4187C122.566 40.4187 123.196 40.5841 123.755 40.8994ZM120.462 41.44C120.017 41.697 119.646 42.0677 119.386 42.5152C119.121 42.9638 118.983 43.4777 118.987 44.0005C118.984 44.5261 119.122 45.0427 119.386 45.495C119.645 45.9462 120.016 46.3206 120.462 46.5809C120.909 46.8456 121.418 46.9835 121.936 46.9803C122.45 46.9831 122.955 46.8451 123.397 46.5809C123.841 46.3195 124.21 45.9452 124.467 45.495C124.732 45.043 124.87 44.5262 124.866 44.0005C124.871 43.4777 124.733 42.9636 124.467 42.5152C124.209 42.0686 123.84 41.6981 123.397 41.44C122.954 41.1789 122.449 41.0426 121.936 41.0453C121.419 41.042 120.91 41.1782 120.462 41.44Z" fill="#222220"/>
<path d="M135.119 40.4802H135.802V47.5456H135.075L130.76 41.5677V47.5456H130.074V40.4802H130.801L135.125 46.4582L135.119 40.4802Z" fill="#222220"/>
<path d="M146.714 40.4802H151.08V41.1069H147.402V43.8225H150.68V44.4492H147.402V47.5395H146.714V40.4802Z" fill="#222220"/>
<path d="M160.074 40.8994C160.618 41.2085 161.073 41.6558 161.395 42.1973C161.719 42.7389 161.888 43.3611 161.883 43.9944C161.887 44.6309 161.718 45.2564 161.395 45.8022C161.069 46.3535 160.607 46.8097 160.056 47.1265C159.504 47.4433 158.88 47.6098 158.246 47.6098C157.612 47.6098 156.988 47.4433 156.437 47.1265C155.885 46.8097 155.423 46.3535 155.097 45.8022C154.773 45.2566 154.604 44.631 154.609 43.9944C154.603 43.361 154.772 42.7386 155.097 42.1973C155.418 41.6559 155.873 41.2086 156.417 40.8994C156.976 40.5841 157.605 40.4187 158.245 40.4187C158.885 40.4187 159.514 40.5841 160.074 40.8994ZM156.781 41.44C156.335 41.697 155.965 42.0677 155.705 42.5152C155.44 42.9638 155.302 43.4777 155.306 44.0005C155.303 44.5261 155.441 45.0427 155.705 45.495C155.963 45.9462 156.334 46.3206 156.781 46.5809C157.228 46.8456 157.738 46.9835 158.257 46.9803C158.77 46.9831 159.274 46.845 159.716 46.5809C160.16 46.3191 160.529 45.9449 160.787 45.495C161.052 45.0427 161.189 44.5261 161.186 44.0005C161.19 43.4777 161.052 42.9638 160.787 42.5152C160.528 42.0689 160.159 41.6984 159.716 41.44C159.273 41.1787 158.769 41.0424 158.257 41.0453C157.739 41.0419 157.229 41.1781 156.781 41.44Z" fill="#222220"/>
<path d="M170.98 47.5391L169.475 45.2351C169.263 45.249 169.1 45.2552 168.987 45.2552H167.075V47.5376H166.387V40.4722H168.99C169.86 40.4722 170.533 40.677 171.007 41.0865C171.482 41.4961 171.72 42.0731 171.72 42.8176C171.739 43.3388 171.592 43.8525 171.301 44.2829C171.006 44.6851 170.584 44.9733 170.106 45.1L171.78 47.5345L170.98 47.5391ZM168.99 44.63C169.654 44.63 170.166 44.4764 170.526 44.1692C170.885 43.862 171.065 43.4191 171.064 42.8406C171.064 42.2754 170.883 41.8453 170.526 41.5488C170.168 41.2524 169.654 41.105 168.99 41.105H167.078V44.6285L168.99 44.63Z" fill="#222220"/>
<path d="M186.404 41.2758C185.747 40.9924 185.011 40.9617 184.333 41.1893C183.656 41.4169 183.083 41.8873 182.723 42.5122C182.465 42.9644 182.329 43.4775 182.329 43.9998C182.329 44.5222 182.465 45.0353 182.723 45.4874C182.979 45.9327 183.345 46.3031 183.784 46.5626C184.233 46.8288 184.745 46.9668 185.265 46.9619C185.651 46.9612 186.033 46.884 186.391 46.7346C186.751 46.5855 187.081 46.3717 187.366 46.1034L187.785 46.5641C187.437 46.8889 187.036 47.1488 186.6 47.3321C186.168 47.5178 185.704 47.6139 185.236 47.6147C184.605 47.6189 183.985 47.4551 183.437 47.1397C182.889 46.8243 182.432 46.3683 182.112 45.8176C181.791 45.2711 181.624 44.6459 181.629 44.0098C181.623 43.3764 181.792 42.7541 182.117 42.2128C182.444 41.6669 182.905 41.2161 183.455 40.9044C184.005 40.5928 184.625 40.4307 185.255 40.4341C185.723 40.4341 186.186 40.5253 186.619 40.7029C187.048 40.8695 187.442 41.1159 187.782 41.4294L187.373 41.9148C187.093 41.6414 186.764 41.4245 186.404 41.2758Z" fill="#222220"/>
<path d="M197.455 47.5393L196.627 45.6608H192.761L191.945 47.5393H191.208L194.347 40.4739H195.063L198.202 47.5393H197.455ZM193.031 45.0342H196.365L194.698 41.2173L193.031 45.0342Z" fill="#222220"/>
<path d="M206.931 47.5391L205.426 45.2351C205.214 45.249 205.052 45.2552 204.938 45.2552H203.025V47.5376H202.337V40.4722H204.938C205.808 40.4722 206.481 40.677 206.956 41.0865C207.432 41.4961 207.67 42.0731 207.669 42.8176C207.688 43.3391 207.541 43.853 207.249 44.2829C206.954 44.6847 206.533 44.9728 206.055 45.1L207.722 47.5345L206.931 47.5391ZM204.938 44.63C205.602 44.63 206.113 44.4764 206.473 44.1692C206.833 43.862 207.012 43.4191 207.011 42.8406C207.011 42.2754 206.831 41.8453 206.473 41.5488C206.115 41.2524 205.602 41.105 204.938 41.105H203.025V44.6285L204.938 44.63Z" fill="#222220"/>
<path d="M215.461 41.2128C215.15 41.1166 214.828 41.0649 214.503 41.0592C214.1 41.0397 213.701 41.1401 213.353 41.348C213.219 41.4278 213.108 41.5422 213.032 41.6796C212.956 41.8169 212.917 41.9723 212.92 42.1298C212.908 42.3876 212.994 42.6402 213.159 42.8363C213.322 43.0217 213.522 43.1685 213.747 43.2664C214.059 43.4007 214.378 43.5171 214.703 43.615C215.093 43.7261 215.475 43.8663 215.845 44.0343C216.133 44.173 216.386 44.3788 216.581 44.6349C216.781 44.9367 216.887 45.2925 216.886 45.6562C216.884 46.0199 216.775 46.3747 216.572 46.6746C216.346 46.9776 216.04 47.2102 215.69 47.3459C215.274 47.5113 214.83 47.5922 214.384 47.5839C213.896 47.5832 213.414 47.4834 212.965 47.2906C212.524 47.109 212.12 46.8454 211.774 46.5134L212.092 45.9374C212.405 46.2482 212.774 46.4949 213.179 46.6639C213.561 46.8333 213.974 46.9226 214.391 46.9266C214.836 46.9502 215.277 46.8361 215.657 46.5994C215.803 46.5052 215.923 46.3742 216.005 46.2192C216.087 46.0643 216.128 45.8905 216.125 45.7147C216.136 45.4509 216.051 45.1923 215.885 44.9882C215.726 44.7988 215.524 44.6499 215.297 44.5535C215.066 44.4521 214.74 44.3354 214.321 44.2002C213.935 44.0842 213.555 43.9442 213.185 43.7809C212.899 43.6493 212.649 43.4483 212.458 43.1957C212.246 42.9017 212.139 42.5439 212.154 42.1805C212.15 41.8422 212.257 41.5121 212.458 41.2419C212.675 40.9624 212.965 40.7497 213.296 40.6276C213.693 40.4761 214.116 40.4026 214.541 40.411C215.301 40.4196 216.044 40.6355 216.693 41.0362L216.39 41.6337C216.102 41.4491 215.789 41.3073 215.461 41.2128Z" fill="#222220"/>
<path d="M46.1358 1.78015C46.0267 1.76325 35.0732 0 23.8272 0C12.5811 0 1.62607 1.76329 1.51696 1.78172L0.957764 1.87232V2.4468C0.957764 2.57275 0.989585 15.2535 3.74919 27.77C7.45594 44.5841 14.3981 53.4727 23.8256 53.4727C33.2531 53.4727 40.1923 44.5841 43.9036 27.7685C46.6632 15.2536 46.695 2.57885 46.695 2.44523V1.87082L46.1358 1.78015Z" fill="white"/>
<path d="M46.1358 1.78015C46.0267 1.76325 35.0732 0 23.8272 0C12.5811 0 1.62607 1.76329 1.51696 1.78172L0.957764 1.87232V2.4468C0.957764 2.57275 0.989585 15.2535 3.74919 27.77C7.45594 44.5841 14.3981 53.4727 23.8256 53.4727C33.2531 53.4727 40.1923 44.5841 43.9036 27.7685C46.6632 15.2536 46.695 2.57885 46.695 2.44523V1.87082L46.1358 1.78015ZM31.2846 31.3089C31.2764 31.4819 31.2029 31.6452 31.0791 31.7648C30.9554 31.8843 30.791 31.951 30.6201 31.951C30.4491 31.951 30.2847 31.8843 30.161 31.7648C30.0373 31.6452 29.9637 31.4819 29.9556 31.3089V25.0114H24.5V31.3089C24.4918 31.4819 24.4183 31.6452 24.2946 31.7648C24.1708 31.8843 24.0064 31.951 23.8355 31.951C23.6645 31.951 23.5002 31.8843 23.3764 31.7648C23.2527 31.6452 23.1791 31.4819 23.171 31.3089V25.0114H17.7154V31.3089C17.7073 31.4819 17.6337 31.6452 17.51 31.7648C17.3862 31.8843 17.2218 31.951 17.0509 31.951C16.88 31.951 16.7156 31.8843 16.5918 31.7648C16.4681 31.6452 16.3945 31.4819 16.3864 31.3089V17.3471C16.3945 17.174 16.4681 17.0108 16.5918 16.8912C16.7156 16.7717 16.88 16.7049 17.0509 16.7049C17.2218 16.7049 17.3862 16.7717 17.51 16.8912C17.6337 17.0108 17.7073 17.174 17.7154 17.3471V23.6583H23.171V17.3471C23.1791 17.174 23.2527 17.0108 23.3764 16.8912C23.5002 16.7717 23.6645 16.7049 23.8355 16.7049C24.0064 16.7049 24.1708 16.7717 24.2946 16.8912C24.4183 17.0108 24.4918 17.174 24.5 17.3471V23.6583H29.9556V17.3471C29.9637 17.174 30.0373 17.0108 30.161 16.8912C30.2847 16.7717 30.4491 16.7049 30.6201 16.7049C30.791 16.7049 30.9554 16.7717 31.0791 16.8912C31.2029 17.0108 31.2764 17.174 31.2846 17.3471V31.3089Z" fill="#222220"/>
</svg>